<?xml version="1.0" encoding="utf-8"?>
<!-- Generator: Adobe Illustrator 21.1.0, SVG Export Plug-In . SVG Version: 6.00 Build 0)  -->
<svg version="1.0" id="Layer_1" xmlns="http://www.w3.org/2000/svg" xmlns:xlink="http://www.w3.org/1999/xlink" x="0px" y="0px"
	 viewBox="0 0 40 40" style="enable-background:new 0 0 40 40;" xml:space="preserve">
<style type="text/css">
	.st0{fill:#FFFFFF;}
</style>
<g>
	<g>
		<g>
			<g>
				<path class="st0" d="M19.7,9.1c2.7,0,4.9,2.2,4.9,4.9v2.1c0,0.3-0.3,0.5-0.5,0.5c-0.5,0-1.6,0.2-1.6-0.5V14
					c0-1.5-1.2-2.7-2.7-2.7h-9C9.3,11.2,8,12.5,8,14v1.6c0,0.4,0.1,1.1-0.5,1.1c-0.5,0-1.6,0.2-1.6-0.5V14c0-2.7,2.2-4.9,4.9-4.9
					H19.7z"/>
				<path class="st0" d="M10.8,30.9c-2.7,0-4.9-2.2-4.9-4.9v-2.1c0-0.3,0.3-0.5,0.5-0.5c0.5,0,1.6-0.2,1.6,0.5V26
					c0,1.5,1.2,2.7,2.7,2.7h9c1.5,0,2.7-1.2,2.7-2.7v-1.6c0-0.4-0.1-1.1,0.5-1.1c0.5,0,1.6-0.2,1.6,0.5v2.1c0,2.7-2.2,4.9-4.9,4.9
					L10.8,30.9z"/>
			</g>
		</g>
		<path class="st0" d="M28.4,26.2c-0.4,0.4-1.1,0.4-1.6,0c-0.2-0.2-0.3-0.5-0.3-0.8v-3.7h-5.3c-0.1,0-0.3-0.1-0.4-0.2
			s-0.2-0.3-0.2-0.4v-2.2c0-0.1,0.1-0.3,0.2-0.4s0.3-0.2,0.4-0.2h5.3v-3.7c0-0.3,0.1-0.6,0.3-0.8c0.4-0.4,1.1-0.4,1.6,0l5.4,5.4
			c0.4,0.4,0.4,1.1,0,1.5L28.4,26.2z"/>
	</g>
	<path class="st0" d="M13.3,26.2c-0.4,0.4-1.1,0.4-1.6,0c-0.2-0.2-0.3-0.5-0.3-0.8v-3.7h-5c-0.1,0-0.3-0.1-0.4-0.2s-0.2-0.3-0.2-0.4
		v-2.2c0-0.1,0.1-0.3,0.2-0.4s0.3-0.2,0.4-0.2h5v-3.7c0-0.3,0.1-0.6,0.3-0.8c0.4-0.4,1.1-0.4,1.6,0l5.4,5.4c0.4,0.4,0.4,1.1,0,1.5
		L13.3,26.2z"/>
</g>
</svg>
