<?xml version="1.0" encoding="utf-8"?>
<!-- Generator: Adobe Illustrator 21.1.0, SVG Export Plug-In . SVG Version: 6.00 Build 0)  -->
<svg version="1.1" id="Layer_1" xmlns="http://www.w3.org/2000/svg" xmlns:xlink="http://www.w3.org/1999/xlink" x="0px" y="0px"
	 viewBox="0 0 40 40" style="enable-background:new 0 0 40 40;" xml:space="preserve">
<style type="text/css">
	.st0{fill:#A6A6A6;}
</style>
<path class="st0" d="M29.8,30.4c0,0.9-0.7,1.6-1.6,1.6H11.8c-0.9,0-1.6-0.7-1.6-1.6v-9.8c0-0.9,0.7-1.6,1.6-1.6h0.5v-3.3
	c0-4.2,3.5-7.7,7.7-7.7s7.7,3.5,7.7,7.7V19h0.5c0.9,0,1.6,0.7,1.6,1.6C29.8,20.6,29.8,30.4,29.8,30.4z M24.4,18.9v-3.3
	c0-2.4-2-4.4-4.4-4.4s-4.4,2-4.4,4.4v3.3C15.6,18.9,24.4,18.9,24.4,18.9z"/>
</svg>
