<?xml version="1.0" encoding="utf-8"?>
<!-- Generator: Adobe Illustrator 21.1.0, SVG Export Plug-In . SVG Version: 6.00 Build 0)  -->
<svg version="1.0" id="Layer_1" xmlns="http://www.w3.org/2000/svg" xmlns:xlink="http://www.w3.org/1999/xlink" x="0px" y="0px"
	 viewBox="0 0 40 40" style="enable-background:new 0 0 40 40;" xml:space="preserve">
<style type="text/css">
	.st0{fill:#FFFFFF;}
</style>
<path class="st0" d="M31,20.9V31h-2.2v-7.1c0-0.2-0.1-0.5-0.2-0.7l-2,2V31H13.5v-6.6h2.3v-2.2h-2.9c-0.9,0-1.6,0.7-1.6,1.6V31H9.1
	V9.2h2.2v7.1c0,0.9,0.7,1.6,1.6,1.6h5.8l2.2-2.2h-2.5c-0.3,0-0.5-0.3-0.5-0.5V9.7c0-0.3,0.3-0.5,0.5-0.5h3.3c0.3,0,0.5,0.3,0.5,0.5
	v4.7l2.2-2.2v-3c0.3,0,1,0.3,1.2,0.5l0.6,0.6L27.6,9l0,0l0.3-0.3l-0.6-0.6c-0.7-0.6-2-1.1-2.9-1.1H8.6C7.7,7,6.9,7.7,6.9,8.6v23
	c0,0.9,0.7,1.6,1.6,1.6h23c0.9,0,1.6-0.7,1.6-1.6V18.7L31,20.9z"/>
<g>
	<path class="st0" d="M34.1,15L22.7,26.5h-4.9v-4.9l11.5-11.5L34.1,15z M23.9,22.9l-2.6-2.6l-2,2v1H21v1.6h1L23.9,22.9z M28.9,12.6
		l-6,6c-0.2,0.2-0.2,0.4,0,0.6s0.4,0.1,0.6,0l6-6c0.2-0.2,0.2-0.4,0-0.6S29.1,12.5,28.9,12.6z M35.2,14l-4.9-5l1.6-1.6
		c0.6-0.6,1.7-0.6,2.3,0l2.6,2.6c0.6,0.6,0.6,1.7,0,2.3L35.2,14z"/>
</g>
</svg>
