<?xml version="1.0" encoding="utf-8"?>
<!-- Generator: Adobe Illustrator 21.1.0, SVG Export Plug-In . SVG Version: 6.00 Build 0)  -->
<svg version="1.0" id="Layer_1" xmlns="http://www.w3.org/2000/svg" xmlns:xlink="http://www.w3.org/1999/xlink" x="0px" y="0px"
	 viewBox="0 0 40 40" style="enable-background:new 0 0 40 40;" xml:space="preserve">
<style type="text/css">
	.st0{fill:#FFFFFF;}
</style>
<g>
	<path class="st0" d="M16.6,6.9H4.8C3.5,6.9,2.5,8,2.5,9.3v7.2c0,1.3,1,2.4,2.3,2.4h11.8c1.2,0,2.3-1.1,2.3-2.4V9.3
		C18.9,8,17.8,6.9,16.6,6.9z M16.7,16L16.7,16v0.2c0,0.3-0.3,0.6-0.6,0.6H5.2c-0.3,0-0.6-0.3-0.6-0.6V9.7l0,0V9.5
		c0-0.3,0.3-0.6,0.6-0.6h10.9c0.3,0,0.6,0.3,0.6,0.6C16.7,9.5,16.7,16,16.7,16z"/>
	<path class="st0" d="M35.2,6.9H23.4c-1.2,0-2.3,1.1-2.3,2.4v7.2c0,1.3,1,2.4,2.3,2.4h11.8c1.2,0,2.3-1.1,2.3-2.4V9.3
		C37.5,8,36.5,6.9,35.2,6.9z M35.4,16L35.4,16v0.2c0,0.3-0.3,0.6-0.6,0.6H23.9c-0.3,0-0.6-0.3-0.6-0.6V9.7l0,0V9.5
		c0-0.3,0.3-0.6,0.6-0.6h10.9c0.3,0,0.6,0.3,0.6,0.6C35.4,9.5,35.4,16,35.4,16z"/>
	<path class="st0" d="M16.6,21.2H4.8c-1.2,0-2.3,1.1-2.3,2.4v7.2c0,1.3,1,2.4,2.3,2.4h11.8c1.2,0,2.3-1.1,2.3-2.4v-7.2
		C18.9,22.3,17.8,21.2,16.6,21.2z M16.7,30.3L16.7,30.3v0.2c0,0.3-0.3,0.6-0.6,0.6H5.2c-0.3,0-0.6-0.3-0.6-0.6V24l0,0v-0.2
		c0-0.3,0.3-0.6,0.6-0.6h10.9c0.3,0,0.6,0.3,0.6,0.6C16.7,23.8,16.7,30.3,16.7,30.3z"/>
	<path class="st0" d="M35.2,21.2H23.4c-1.2,0-2.3,1.1-2.3,2.4v7.2c0,1.3,1,2.4,2.3,2.4h11.8c1.2,0,2.3-1.1,2.3-2.4v-7.2
		C37.5,22.3,36.5,21.2,35.2,21.2z M35.4,30.3L35.4,30.3v0.2c0,0.3-0.3,0.6-0.6,0.6H23.9c-0.3,0-0.6-0.3-0.6-0.6V24l0,0v-0.2
		c0-0.3,0.3-0.6,0.6-0.6h10.9c0.3,0,0.6,0.3,0.6,0.6C35.4,23.8,35.4,30.3,35.4,30.3z"/>
</g>
</svg>
