<?xml version="1.0" encoding="utf-8"?>
<!-- Generator: Adobe Illustrator 21.1.0, SVG Export Plug-In . SVG Version: 6.00 Build 0)  -->
<svg version="1.0" id="Layer_1" xmlns="http://www.w3.org/2000/svg" xmlns:xlink="http://www.w3.org/1999/xlink" x="0px" y="0px"
	 viewBox="0 0 40 40" style="enable-background:new 0 0 40 40;" xml:space="preserve">
<style type="text/css">
	.st0{fill:#FFFFFF;}
</style>
<g>
	<path class="st0" d="M34.8,11.2H13.5V9.6c0-1.5-1.2-2.7-2.7-2.7H5.2c-1.5,0-2.7,1.2-2.7,2.7V14v1.2v15.2c0,1.5,1.2,2.7,2.7,2.7
		h29.5c1.5,0,2.7-1.2,2.7-2.7V14C37.5,12.5,36.3,11.2,34.8,11.2z M35.3,30.2L35.3,30.2v0.2c0,0.3-0.3,0.5-0.5,0.5H5.2
		c-0.3,0-0.5-0.3-0.5-0.5V14.1l0,0V14c0-0.3,0.3-0.5,0.5-0.5h29.5c0.3,0,0.5,0.3,0.5,0.5L35.3,30.2L35.3,30.2z"/>
	<path class="st0" d="M31.5,6.9h-2.6c-1.4,0-2.6,1.1-2.7,2.6h8C34.1,8,32.9,6.9,31.5,6.9z"/>
	<path class="st0" d="M21.1,6.9h-2.6c-1.4,0-2.6,1.1-2.7,2.6h8C23.7,8,22.5,6.9,21.1,6.9z"/>
</g>
</svg>
