<?xml version="1.0" encoding="UTF-8" standalone="no"?>
<svg
   xmlns:dc="http://purl.org/dc/elements/1.1/"
   xmlns:cc="http://creativecommons.org/ns#"
   xmlns:rdf="http://www.w3.org/1999/02/22-rdf-syntax-ns#"
   xmlns:svg="http://www.w3.org/2000/svg"
   xmlns="http://www.w3.org/2000/svg"
   xmlns:sodipodi="http://sodipodi.sourceforge.net/DTD/sodipodi-0.dtd"
   xmlns:inkscape="http://www.inkscape.org/namespaces/inkscape"
   id="bold"
   enable-background="new 0 0 24 24"
   height="512"
   viewBox="0 0 24 24"
   width="512"
   version="1.1"
   sodipodi:docname="CANbus_icon_Log.svg"
   inkscape:version="1.0.1 (3bc2e813f5, 2020-09-07)">
  <metadata
     id="metadata2439">
    <rdf:RDF>
      <cc:Work
         rdf:about="">
        <dc:format>image/svg+xml</dc:format>
        <dc:type
           rdf:resource="http://purl.org/dc/dcmitype/StillImage" />
        <dc:title></dc:title>
      </cc:Work>
    </rdf:RDF>
  </metadata>
  <defs
     id="defs2437" />
  <sodipodi:namedview
     pagecolor="#ffffff"
     bordercolor="#666666"
     borderopacity="1"
     objecttolerance="10"
     gridtolerance="10"
     guidetolerance="10"
     inkscape:pageopacity="0"
     inkscape:pageshadow="2"
     inkscape:window-width="1916"
     inkscape:window-height="1056"
     id="namedview2435"
     showgrid="false"
     inkscape:zoom="1.96875"
     inkscape:cx="158.22222"
     inkscape:cy="438.85714"
     inkscape:window-x="0"
     inkscape:window-y="20"
     inkscape:window-maximized="0"
     inkscape:current-layer="bold" />
  <path
     d="m6.75 5.5c-.552 0-1-.448-1-1v-3.5c0-.552.448-1 1-1s1 .448 1 1v3.5c0 .552-.448 1-1 1z"
     id="path2426"
     style="fill:#a6a6a6;fill-opacity:1" />
  <path
     d="m11.5 5.5c-.552 0-1-.448-1-1v-3.5c0-.552.448-1 1-1s1 .448 1 1v3.5c0 .552-.448 1-1 1z"
     id="path2428"
     style="fill:#a6a6a6;fill-opacity:1" />
  <path
     d="m16.25 5.5c-.552 0-1-.448-1-1v-3.5c0-.552.448-1 1-1s1 .448 1 1v3.5c0 .552-.448 1-1 1z"
     id="path2430"
     style="fill:#a6a6a6;fill-opacity:1" />
  <path
     d="m18.25 2.25h-13.5c-1.517 0-2.75 1.233-2.75 2.75v16.25c0 1.517 1.233 2.75 2.75 2.75h13.5c1.517 0 2.75-1.233 2.75-2.75v-16.25c0-1.517-1.233-2.75-2.75-2.75zm-11.25 5.75h5c.552 0 1 .448 1 1s-.448 1-1 1h-5c-.552 0-1-.448-1-1s.448-1 1-1zm10 10h-10c-.552 0-1-.448-1-1s.448-1 1-1h10c.552 0 1 .448 1 1s-.448 1-1 1zm0-4h-10c-.552 0-1-.448-1-1s.448-1 1-1h10c.552 0 1 .448 1 1s-.448 1-1 1z"
     id="path2432"
     style="fill:#a6a6a6;fill-opacity:1" />
</svg>
