<?xml version="1.0" encoding="utf-8"?>
<!-- Generator: Adobe Illustrator 21.1.0, SVG Export Plug-In . SVG Version: 6.00 Build 0)  -->
<svg version="1.1" id="Layer_1" xmlns="http://www.w3.org/2000/svg" xmlns:xlink="http://www.w3.org/1999/xlink" x="0px" y="0px"
	 viewBox="0 0 40 40" style="enable-background:new 0 0 40 40;" xml:space="preserve">
<style type="text/css">
	.st0{fill:#A6A6A6;}
</style>
<g>
	<path class="st0" d="M31.6,11.8H18.8v2.7h1c1.7,0,3.1,1.2,3.4,2.9h7.1c0.5,0,0.9,0.4,0.9,1v10.1c0,0.6-0.4,1-0.9,1H17.4
		c-0.5,0-0.9-0.4-0.9-1v0.2h-2.9v0.8c0,1.4,1.1,2.5,2.5,2.5h15.4c1.4,0,2.5-1.1,2.5-2.5V14.3C34.1,12.9,32.9,11.8,31.6,11.8z"/>
	<path class="st0" d="M22.1,18c0-1.3-1.1-2.4-2.4-2.4H19l0,0h-1.3V8.5c0-0.3-0.2-0.5-0.5-0.5h-3.3c-0.3,0-0.5,0.2-0.5,0.5v7.1H12
		l0,0h-0.8c-1.3,0-2.4,1.1-2.4,2.4v1h13.3V18L22.1,18z"/>
	<path class="st0" d="M22,20.2H9c0,0,0.4,4.5-3,6.8h13C22.4,24.7,22,20.2,22,20.2z"/>
</g>
</svg>
