<?xml version="1.0" encoding="utf-8"?>
<!-- Generator: Adobe Illustrator 21.1.0, SVG Export Plug-In . SVG Version: 6.00 Build 0)  -->
<svg version="1.1" id="Layer_1" xmlns="http://www.w3.org/2000/svg" xmlns:xlink="http://www.w3.org/1999/xlink" x="0px" y="0px"
	 viewBox="0 0 40 40" style="enable-background:new 0 0 40 40;" xml:space="preserve">
<style type="text/css">
	.st0{fill:#A6A6A6;}
</style>
<g>
	<path class="st0" d="M26.2,30.2c0.4,0.4,0.4,1.1,0,1.5C26,31.9,25.7,32,25.4,32h-3.5H18h-3.5c-0.3,0-0.6-0.1-0.8-0.3
		c-0.4-0.4-0.4-1.1,0-1.5l5.4-5.4c0.4-0.4,1.1-0.4,1.5,0L26.2,30.2z"/>
	<path class="st0" d="M21.9,8h3.5c0.3,0,0.6,0.1,0.8,0.3c0.4,0.4,0.4,1.1,0,1.5l-5.4,5.4c-0.4,0.4-1.1,0.4-1.5,0l-5.4-5.4
		c-0.4-0.4-0.4-1.1,0-1.5C14,8.1,14.3,8,14.6,8h3.5H21.9z"/>
	<path class="st0" d="M31.8,23.5H8.2c-1.1,0-2-1-2-2.2V19c0-1.2,0.9-2.2,2-2.2h23.6c1.1,0,2,1,2,2.2v2.3
		C33.8,22.5,32.9,23.5,31.8,23.5z"/>
</g>
</svg>
