<?xml version="1.0" encoding="UTF-8" standalone="no"?>
<!-- Generator: Adobe Illustrator 21.1.0, SVG Export Plug-In . SVG Version: 6.00 Build 0)  -->

<svg
   xmlns:dc="http://purl.org/dc/elements/1.1/"
   xmlns:cc="http://creativecommons.org/ns#"
   xmlns:rdf="http://www.w3.org/1999/02/22-rdf-syntax-ns#"
   xmlns:svg="http://www.w3.org/2000/svg"
   xmlns="http://www.w3.org/2000/svg"
   xmlns:sodipodi="http://sodipodi.sourceforge.net/DTD/sodipodi-0.dtd"
   xmlns:inkscape="http://www.inkscape.org/namespaces/inkscape"
   version="1.0"
   id="Layer_1"
   x="0px"
   y="0px"
   viewBox="0 0 40 40"
   style="enable-background:new 0 0 40 40;"
   xml:space="preserve"
   sodipodi:docname="CANbus_icon_Switch_dark.svg"
   inkscape:version="0.92.2 5c3e80d, 2017-08-06"><metadata
     id="metadata13"><rdf:RDF><cc:Work
         rdf:about=""><dc:format>image/svg+xml</dc:format><dc:type
           rdf:resource="http://purl.org/dc/dcmitype/StillImage" /><dc:title></dc:title></cc:Work></rdf:RDF></metadata><defs
     id="defs11" /><sodipodi:namedview
     pagecolor="#ffffff"
     bordercolor="#666666"
     borderopacity="1"
     objecttolerance="10"
     gridtolerance="10"
     guidetolerance="10"
     inkscape:pageopacity="0"
     inkscape:pageshadow="2"
     inkscape:window-width="1920"
     inkscape:window-height="1080"
     id="namedview9"
     showgrid="false"
     inkscape:zoom="5.9"
     inkscape:cx="-14.067797"
     inkscape:cy="20"
     inkscape:window-x="0"
     inkscape:window-y="0"
     inkscape:window-maximized="0"
     inkscape:current-layer="Layer_1" /><style
     type="text/css"
     id="style2">
	.st0{fill:#FFFFFF;}
</style><path
     class="st0"
     d="M27.5,11.7h-1.9V9.3c0-0.2-0.2-0.5-0.5-0.5H9.3C9,8.9,8.8,9.1,8.8,9.3v15.9c0,0.2,0.2,0.5,0.5,0.5h2.3v1.9H9.3  C8,27.6,7,26.5,7,25.3v-16C7,8.1,8,7,9.3,7h15.9c1.3,0,2.3,1.1,2.3,2.3V11.7z M33.2,30.9c0,1.3-1.1,2.3-2.3,2.3h-16  c-1.3,0-2.3-1.1-2.3-2.3V15c0-1.3,1.1-2.3,2.3-2.3h15.9c1.3,0,2.3,1.1,2.3,2.3v15.9H33.2z M31.3,15c0-0.2-0.2-0.5-0.5-0.5H14.9  c-0.2,0-0.5,0.2-0.5,0.5v15.9c0,0.2,0.2,0.5,0.5,0.5h15.9c0.2,0,0.5-0.2,0.5-0.5V15z"
     id="path4" /><rect
     x="17"
     y="17"
     class="st0"
     width="11.7"
     height="11.7"
     id="rect6"
     style="fill:#00000f;fill-opacity:0.94117647" /></svg>