<?xml version="1.0" encoding="UTF-8" standalone="no"?>
<!-- Generator: Adobe Illustrator 21.1.0, SVG Export Plug-In . SVG Version: 6.00 Build 0)  -->

<svg
   xmlns:dc="http://purl.org/dc/elements/1.1/"
   xmlns:cc="http://creativecommons.org/ns#"
   xmlns:rdf="http://www.w3.org/1999/02/22-rdf-syntax-ns#"
   xmlns:svg="http://www.w3.org/2000/svg"
   xmlns="http://www.w3.org/2000/svg"
   xmlns:sodipodi="http://sodipodi.sourceforge.net/DTD/sodipodi-0.dtd"
   xmlns:inkscape="http://www.inkscape.org/namespaces/inkscape"
   version="1.0"
   id="Layer_1"
   x="0px"
   y="0px"
   viewBox="0 0 40 40"
   style="enable-background:new 0 0 40 40;"
   xml:space="preserve"
   sodipodi:docname="CANbus_icon_SaveProject_disabled.svg"
   inkscape:version="0.92.2 5c3e80d, 2017-08-06"><metadata
     id="metadata2873"><rdf:RDF><cc:Work
         rdf:about=""><dc:format>image/svg+xml</dc:format><dc:type
           rdf:resource="http://purl.org/dc/dcmitype/StillImage" /><dc:title></dc:title></cc:Work></rdf:RDF></metadata><defs
     id="defs2871" /><sodipodi:namedview
     pagecolor="#ffffff"
     bordercolor="#666666"
     borderopacity="1"
     objecttolerance="10"
     gridtolerance="10"
     guidetolerance="10"
     inkscape:pageopacity="0"
     inkscape:pageshadow="2"
     inkscape:window-width="1916"
     inkscape:window-height="1056"
     id="namedview2869"
     showgrid="false"
     inkscape:zoom="5.9"
     inkscape:cx="-14.40678"
     inkscape:cy="20"
     inkscape:window-x="0"
     inkscape:window-y="20"
     inkscape:window-maximized="0"
     inkscape:current-layer="Layer_1" /><style
     type="text/css"
     id="style2864">
	.st0{fill:#FFFFFF;}
</style><path
     class="st0"
     d="M33.1,31.5c0,0.9-0.7,1.6-1.6,1.6h-23c-0.9,0-1.6-0.7-1.6-1.6v-23c0-0.9,0.7-1.6,1.6-1.6h15.9  c0.9,0,2.2,0.5,2.8,1.2l4.8,4.8c0.6,0.6,1.2,1.9,1.2,2.8L33.1,31.5L33.1,31.5z M30.9,31V15.7c0-0.3-0.3-1-0.5-1.2l-4.8-4.8  c-0.2-0.2-0.9-0.5-1.2-0.5v7.1c0,0.9-0.7,1.6-1.6,1.6H13c-0.9,0-1.6-0.7-1.6-1.6V9.1H9.1V31h2.2v-7.1c0-0.9,0.7-1.6,1.6-1.6h14.2  c0.9,0,1.6,0.7,1.6,1.6V31H30.9z M26.6,31v-6.6H13.4V31H26.6z M22.2,9.7c0-0.3-0.3-0.5-0.5-0.5h-3.3c-0.3,0-0.5,0.3-0.5,0.5v5.5  c0,0.3,0.3,0.5,0.5,0.5h3.3c0.3,0,0.5-0.3,0.5-0.5V9.7z"
     id="path2866"
     style="fill:#5ab2da;fill-opacity:1" /></svg>