<?xml version="1.0" encoding="utf-8"?>
<!-- Generator: Adobe Illustrator 21.1.0, SVG Export Plug-In . SVG Version: 6.00 Build 0)  -->
<svg version="1.1" id="Layer_1" xmlns="http://www.w3.org/2000/svg" xmlns:xlink="http://www.w3.org/1999/xlink" x="0px" y="0px"
	 viewBox="0 0 40 40" style="enable-background:new 0 0 40 40;" xml:space="preserve">
<style type="text/css">
	.st0{fill:#A6A6A6;}
</style>
<g>
	<path class="st0" d="M35.2,6.9h-22c-1.2,0-2.3,1.1-2.3,2.4v14.8c0,1.3,1,2.4,2.3,2.4h22c1.2,0,2.3-1.1,2.3-2.4V9.3
		C37.5,8,36.5,6.9,35.2,6.9z M35.4,23.7L35.4,23.7v0.2c0,0.3-0.3,0.6-0.6,0.6H13.7c-0.3,0-0.6-0.3-0.6-0.6V9.7l0,0V9.5
		c0-0.3,0.3-0.6,0.6-0.6h21.1c0.3,0,0.6,0.3,0.6,0.6C35.4,9.5,35.4,23.7,35.4,23.7z"/>
	<g>
		<path class="st0" d="M15.5,27.4v2.9l0,0v0.2c0,0.3-0.3,0.6-0.6,0.6H5.2c-0.3,0-0.6-0.3-0.6-0.6v-5.2l0,0v-0.2
			c0-0.3,0.3-0.6,0.6-0.6H10v-2H4.8c-1.2,0-2.3,1.1-2.3,2.4v5.9c0,1.3,1,2.4,2.3,2.4h10.5c1.2,0,2.3-1.1,2.3-2.4v-3.3L15.5,27.4
			L15.5,27.4z"/>
	</g>
	<g>
		<path class="st0" d="M32.8,27.4v2.9l0,0v0.2c0,0.3-0.3,0.6-0.6,0.6h-9.6c-0.3,0-0.6-0.3-0.6-0.6v-3.1h-2.1v3.3
			c0,1.3,1,2.4,2.3,2.4h10.5c1.2,0,2.3-1.1,2.3-2.4v-3.3H32.8z"/>
	</g>
	<g>
		<path class="st0" d="M10,18.1H5.2c-0.3,0-0.6-0.3-0.6-0.6v-5.2l0,0v-0.2c0-0.3,0.3-0.6,0.6-0.6H10v-2H4.8c-1.2,0-2.3,1.1-2.3,2.4
			v5.9c0,1.3,1,2.4,2.3,2.4H10V18.1z"/>
	</g>
</g>
</svg>
