<?xml version="1.0" encoding="UTF-8" standalone="no"?>
<svg
   xmlns:dc="http://purl.org/dc/elements/1.1/"
   xmlns:cc="http://creativecommons.org/ns#"
   xmlns:rdf="http://www.w3.org/1999/02/22-rdf-syntax-ns#"
   xmlns:svg="http://www.w3.org/2000/svg"
   xmlns="http://www.w3.org/2000/svg"
   xmlns:sodipodi="http://sodipodi.sourceforge.net/DTD/sodipodi-0.dtd"
   xmlns:inkscape="http://www.inkscape.org/namespaces/inkscape"
   version="1.0"
   id="Layer_1"
   x="0px"
   y="0px"
   viewBox="0 0 40 40"
   style="enable-background:new 0 0 40 40;"
   xml:space="preserve"
   sodipodi:docname="CANbus_icon_OpenProject_Grey.svg"
   inkscape:version="1.0.1 (3bc2e813f5, 2020-09-07)"><metadata
   id="metadata3099"><rdf:RDF><cc:Work
       rdf:about=""><dc:format>image/svg+xml</dc:format><dc:type
         rdf:resource="http://purl.org/dc/dcmitype/StillImage" /><dc:title></dc:title></cc:Work></rdf:RDF></metadata><defs
   id="defs3097" /><sodipodi:namedview
   pagecolor="#ffffff"
   bordercolor="#666666"
   borderopacity="1"
   objecttolerance="10"
   gridtolerance="10"
   guidetolerance="10"
   inkscape:pageopacity="0"
   inkscape:pageshadow="2"
   inkscape:window-width="1916"
   inkscape:window-height="1056"
   id="namedview3095"
   showgrid="false"
   inkscape:zoom="25.2"
   inkscape:cx="12.361111"
   inkscape:cy="20"
   inkscape:window-x="0"
   inkscape:window-y="20"
   inkscape:window-maximized="0"
   inkscape:current-layer="Layer_1" />
<style
   type="text/css"
   id="style3090">
	.st0{fill:#FFFFFF;}
</style>
<path
   class="st0"
   d="M34.4,22.8l-5,8.4c-1,1.2-2.8,2.1-4.4,2.1l-14.8-0.1c-2.1,0-3.8-1.7-3.8-3.8V10.7c0-2.1,1.7-3.8,3.8-3.8L13.7,7  c2.1,0,3.8,1.7,3.8,3.8v0.5H25c2.1,0,3.8,1.7,3.8,3.8V18h3.3c1.2,0,2.3,0.5,2.8,1.6c0.2,0.4,0.3,0.8,0.3,1.2  C35.2,21.5,34.8,22.2,34.4,22.8z M26.6,18v-2.7c0-0.9-0.7-1.6-1.6-1.6h-8c-0.9,0-1.6-0.7-1.6-1.6V11c0-0.9-0.7-1.6-1.6-1.6l-3.6-0.1  c-0.9,0-1.6,0.7-1.6,1.6v16.8l4.4-7.6c1-1.2,2.8-2.1,4.4-2.1L26.6,18z M32.1,20.2L17.3,20c-0.9,0-2.1,0.6-2.7,1.3l-5,8.4  c-0.2,0.2-0.3,0.4-0.3,0.7c0,0.5,0.5,0.6,0.9,0.6L25,31.1c0.9,0,2.1-0.6,2.7-1.3l5-8.4c0.2-0.2,0.3-0.4,0.3-0.7  C33,20.3,32.4,20.2,32.1,20.2z"
   id="path3092"
   style="fill:#a6a6a6;fill-opacity:1" />
</svg>
