<?xml version="1.0" encoding="utf-8"?>
<!-- Generator: Adobe Illustrator 21.1.0, SVG Export Plug-In . SVG Version: 6.00 Build 0)  -->
<svg version="1.0" id="Layer_1" xmlns="http://www.w3.org/2000/svg" xmlns:xlink="http://www.w3.org/1999/xlink" x="0px" y="0px"
	 viewBox="0 0 40 40" style="enable-background:new 0 0 40 40;" xml:space="preserve">
<style type="text/css">
	.st0{fill:#FFFFFF;}
</style>
<path class="st0" d="M27.5,11.7h-1.9V9.3c0-0.2-0.2-0.5-0.5-0.5H9.3C9,8.9,8.8,9.1,8.8,9.3v15.9c0,0.2,0.2,0.5,0.5,0.5h2.3v1.9H9.3
	C8,27.6,7,26.5,7,25.3v-16C7,8.1,8,7,9.3,7h15.9c1.3,0,2.3,1.1,2.3,2.3V11.7z M33.2,30.9c0,1.3-1.1,2.3-2.3,2.3h-16
	c-1.3,0-2.3-1.1-2.3-2.3V15c0-1.3,1.1-2.3,2.3-2.3h15.9c1.3,0,2.3,1.1,2.3,2.3v15.9H33.2z M31.3,15c0-0.2-0.2-0.5-0.5-0.5H14.9
	c-0.2,0-0.5,0.2-0.5,0.5v15.9c0,0.2,0.2,0.5,0.5,0.5h15.9c0.2,0,0.5-0.2,0.5-0.5V15z"/>
<rect x="17" y="17" class="st0" width="11.7" height="11.7"/>
</svg>
