<?xml version="1.0" encoding="utf-8"?>
<!-- Generator: Adobe Illustrator 21.1.0, SVG Export Plug-In . SVG Version: 6.00 Build 0)  -->
<svg version="1.0" id="Layer_1" xmlns="http://www.w3.org/2000/svg" xmlns:xlink="http://www.w3.org/1999/xlink" x="0px" y="0px"
	 viewBox="0 0 40 40" style="enable-background:new 0 0 40 40;" xml:space="preserve">
<g>
	<g>
		<g>
			<path d="M19.7,9.1c2.7,0,4.9,2.2,4.9,4.9v2.1c0,0.3-0.3,0.5-0.5,0.5c-0.5,0-1.6,0.2-1.6-0.5V14c0-1.5-1.2-2.7-2.7-2.7l-9,0
				C9.3,11.2,8,12.5,8,14l0,10c0,0.4,0.1,1.1-0.5,1.1c-0.5,0-1.6,0.2-1.6-0.5l0-10.6c0-2.7,2.2-4.9,4.9-4.9L19.7,9.1z"/>
			<path d="M10.8,30.9c-2.7,0-4.9-2.2-4.9-4.9l0-2.9c0-0.3,0.3-0.5,0.5-0.5c0.5,0,1.6-0.2,1.6,0.5L8,26c0,1.5,1.2,2.7,2.7,2.7l9,0
				c1.5,0,2.7-1.2,2.7-2.7l0-1.6c0-0.4-0.1-1.1,0.5-1.1c0.5,0,1.6-0.2,1.6,0.5l0,2.1c0,2.7-2.2,4.9-4.9,4.9L10.8,30.9z"/>
		</g>
	</g>
	<path d="M28.4,26.2c-0.4,0.4-1.1,0.4-1.6,0c-0.2-0.2-0.3-0.5-0.3-0.8l0-3.7l-14.2,0c-0.1,0-0.3-0.1-0.4-0.2
		c-0.1-0.1-0.2-0.3-0.2-0.4l0-2.2c0-0.1,0.1-0.3,0.2-0.4c0.1-0.1,0.3-0.2,0.4-0.2l14.2,0l0-3.7c0-0.3,0.1-0.6,0.3-0.8
		c0.4-0.4,1.1-0.4,1.6,0l5.4,5.4c0.4,0.4,0.4,1.1,0,1.5L28.4,26.2z"/>
</g>
</svg>
