<?xml version="1.0" encoding="utf-8"?>
<!-- Generator: Adobe Illustrator 21.1.0, SVG Export Plug-In . SVG Version: 6.00 Build 0)  -->
<svg version="1.0" id="Layer_1" xmlns="http://www.w3.org/2000/svg" xmlns:xlink="http://www.w3.org/1999/xlink" x="0px" y="0px"
	 viewBox="0 0 40 40" style="enable-background:new 0 0 40 40;" xml:space="preserve">
<path d="M29.8,30.4c0,0.9-0.7,1.6-1.6,1.6H11.8c-0.9,0-1.6-0.7-1.6-1.6v-9.8c0-0.9,0.7-1.6,1.6-1.6h0.5v-3.3c0-4.2,3.5-7.7,7.7-7.7
	s7.7,3.5,7.7,7.7v3.3h0.5c0.9,0,1.6,0.7,1.6,1.6V30.4z M24.4,18.9v-3.3c0-2.4-2-4.4-4.4-4.4s-4.4,2-4.4,4.4v3.3H24.4z"/>
</svg>
