<?xml version="1.0" encoding="UTF-8" standalone="no"?>
<!-- Svg Vector Icons : http://www.onlinewebfonts.com/icon -->

<svg
   xmlns:dc="http://purl.org/dc/elements/1.1/"
   xmlns:cc="http://creativecommons.org/ns#"
   xmlns:rdf="http://www.w3.org/1999/02/22-rdf-syntax-ns#"
   xmlns:svg="http://www.w3.org/2000/svg"
   xmlns="http://www.w3.org/2000/svg"
   xmlns:sodipodi="http://sodipodi.sourceforge.net/DTD/sodipodi-0.dtd"
   xmlns:inkscape="http://www.inkscape.org/namespaces/inkscape"
   version="1.1"
   x="0px"
   y="0px"
   viewBox="0 0 1000 1000"
   enable-background="new 0 0 1000 1000"
   xml:space="preserve"
   id="svg10"
   sodipodi:docname="db.svg"
   inkscape:version="0.92.4 5da689c313, 2019-01-14"><defs
   id="defs14" /><sodipodi:namedview
   pagecolor="#ffffff"
   bordercolor="#666666"
   borderopacity="1"
   objecttolerance="10"
   gridtolerance="10"
   guidetolerance="10"
   inkscape:pageopacity="0"
   inkscape:pageshadow="2"
   inkscape:window-width="956"
   inkscape:window-height="1056"
   id="namedview12"
   showgrid="false"
   inkscape:zoom="0.6675088"
   inkscape:cx="604.73394"
   inkscape:cy="598.7415"
   inkscape:window-x="0"
   inkscape:window-y="20"
   inkscape:window-maximized="0"
   inkscape:current-layer="g6" />
<metadata
   id="metadata2"> Svg Vector Icons : http://www.onlinewebfonts.com/icon <rdf:RDF><cc:Work
     rdf:about=""><dc:format>image/svg+xml</dc:format><dc:type
       rdf:resource="http://purl.org/dc/dcmitype/StillImage" /></cc:Work></rdf:RDF></metadata>
<g
   id="g8"><g
     transform="translate(0.000000,512.000000) scale(0.100000,-0.100000)"
     id="g6"><path
       d="M4358.9,5007.5c-894.1-55.5-1508.6-132.1-2107.9-266.1C1018,4463.8,246.5,3996.6,120.1,3447.1c-26.8-116.8-26.8-6542,0-6658.7c34.5-151.2,114.9-291,250.8-432.7c547.5-578.2,1761.4-951.5,3585.9-1104.7c377.2-30.6,1709.7-30.6,2086.8,0c2100.2,176.1,3436.6,662.4,3777.4,1376.6l70.8,149.3L9897.6,68c5.7,3635.7,11.5,3413.6-114.9,3624.2c-78.5,130.2-296.7,342.7-465.2,453.7c-635.6,423.1-1751.8,710.3-3245.1,834.7C5833,5001.7,4575.2,5020.9,4358.9,5007.5z M5756.5,4387.2c1175.5-65.1,2155.8-252.7,2823.9-541.8c346.5-149.3,557.1-291,652.9-432.7c70.8-107.2,70.8-164.6-1.9-271.9c-76.6-118.7-235.5-231.7-507.4-363.8c-1725-840.5-5722.5-840.5-7447.5,0c-271.9,132.1-430.8,245.1-507.4,363.8c-72.7,107.2-72.7,166.6,0,271.9c237.4,356.1,1223.4,714.1,2412.3,876.9C3958.7,4394.8,4923.7,4431.2,5756.5,4387.2z M841.9,2311.8c794.5-467.1,2458.3-777.3,4158.4-777.3c1703.9,0,3381,314,4169.8,783c55.5,32.5,105.3,59.4,109.1,59.4c5.7,0,9.6-283.3,9.6-628v-629.9l-57.4-84.2c-76.6-118.7-235.5-231.7-507.4-363.8c-1725-840.5-5722.5-840.5-7447.5,0c-271.9,132.1-430.8,245.1-507.4,363.8l-57.4,84.2V1749c0,344.6,3.8,628,7.6,628C725.1,2376.9,778.7,2348.2,841.9,2311.8z M830.4,211.6c788.8-469.1,2465.9-783,4169.8-783c1703.9,0,3381,314,4169.8,783c55.5,32.5,105.3,59.4,109.1,59.4c5.7,0,9.6-283.3,9.6-628v-629.9l-57.4-84.2c-216.3-329.3-1139.2-679.7-2234.3-850.1c-1303.8-202.9-2980.9-185.7-4236.8,40.2c-982.2,176.1-1826.5,522.7-2000.7,819.4l-47.9,82.3v624.1c0,344.6,3.8,626.1,9.6,626.1C725.1,270.9,774.9,244.1,830.4,211.6z M830.4-1894.4c788.8-469.1,2465.9-783.1,4169.8-783.1c1703.9,0,3381,314,4169.8,783.1c55.5,32.5,105.3,59.3,109.1,59.3c5.7,0,9.6-283.3,9.6-628v-629.9l-57.4-84.2c-141.7-214.4-616.5-459.5-1246.4-639.5c-1435.9-413.5-3760.1-471-5418.1-134c-903.6,183.8-1608.2,488.2-1799.7,773.5l-55.5,84.2v629.9c0,344.6,3.8,628,9.6,628C725.1-1835,774.9-1861.8,830.4-1894.4z"
       id="path4"
       style="fill:#000000" /></g></g>
</svg>
