<?xml version="1.0" encoding="UTF-8" standalone="no"?>
<svg
   xmlns:dc="http://purl.org/dc/elements/1.1/"
   xmlns:cc="http://creativecommons.org/ns#"
   xmlns:rdf="http://www.w3.org/1999/02/22-rdf-syntax-ns#"
   xmlns:svg="http://www.w3.org/2000/svg"
   xmlns="http://www.w3.org/2000/svg"
   xmlns:sodipodi="http://sodipodi.sourceforge.net/DTD/sodipodi-0.dtd"
   xmlns:inkscape="http://www.inkscape.org/namespaces/inkscape"
   width="24"
   height="24"
   viewBox="0 0 24 24"
   version="1.1"
   id="svg4"
   sodipodi:docname="db_icon.svg"
   inkscape:version="0.92.4 5da689c313, 2019-01-14">
  <metadata
     id="metadata10">
    <rdf:RDF>
      <cc:Work
         rdf:about="">
        <dc:format>image/svg+xml</dc:format>
        <dc:type
           rdf:resource="http://purl.org/dc/dcmitype/StillImage" />
        <dc:title />
      </cc:Work>
    </rdf:RDF>
  </metadata>
  <defs
     id="defs8" />
  <sodipodi:namedview
     pagecolor="#ffffff"
     bordercolor="#666666"
     borderopacity="1"
     objecttolerance="10"
     gridtolerance="10"
     guidetolerance="10"
     inkscape:pageopacity="0"
     inkscape:pageshadow="2"
     inkscape:window-width="669"
     inkscape:window-height="1056"
     id="namedview6"
     showgrid="false"
     inkscape:zoom="9.8333333"
     inkscape:cx="12.61017"
     inkscape:cy="12"
     inkscape:window-x="0"
     inkscape:window-y="20"
     inkscape:window-maximized="0"
     inkscape:current-layer="svg4" />
  <path
     d="M22 18.055v2.458c0 1.925-4.655 3.487-10 3.487-5.344 0-10-1.562-10-3.487v-2.458c2.418 1.738 7.005 2.256 10 2.256 3.006 0 7.588-.523 10-2.256zm-10-3.409c-3.006 0-7.588-.523-10-2.256v2.434c0 1.926 4.656 3.487 10 3.487 5.345 0 10-1.562 10-3.487v-2.434c-2.418 1.738-7.005 2.256-10 2.256zm0-14.646c-5.344 0-10 1.562-10 3.488s4.656 3.487 10 3.487c5.345 0 10-1.562 10-3.487 0-1.926-4.655-3.488-10-3.488zm0 8.975c-3.006 0-7.588-.523-10-2.256v2.44c0 1.926 4.656 3.487 10 3.487 5.345 0 10-1.562 10-3.487v-2.44c-2.418 1.738-7.005 2.256-10 2.256z"
     id="path2"
     style="fill:#000000" />
</svg>
