<?xml version="1.0" encoding="UTF-8" standalone="no"?>
<!-- Generator: Adobe Illustrator 21.1.0, SVG Export Plug-In . SVG Version: 6.00 Build 0)  -->

<svg
   xmlns:dc="http://purl.org/dc/elements/1.1/"
   xmlns:cc="http://creativecommons.org/ns#"
   xmlns:rdf="http://www.w3.org/1999/02/22-rdf-syntax-ns#"
   xmlns:svg="http://www.w3.org/2000/svg"
   xmlns="http://www.w3.org/2000/svg"
   xmlns:sodipodi="http://sodipodi.sourceforge.net/DTD/sodipodi-0.dtd"
   xmlns:inkscape="http://www.inkscape.org/namespaces/inkscape"
   version="1.0"
   id="Layer_1"
   x="0px"
   y="0px"
   viewBox="0 0 40 40"
   style="enable-background:new 0 0 40 40;"
   xml:space="preserve"
   sodipodi:docname="CANbus_icon_CloseSim_disabled.svg"
   inkscape:version="0.92.2 5c3e80d, 2017-08-06"><metadata
     id="metadata2069"><rdf:RDF><cc:Work
         rdf:about=""><dc:format>image/svg+xml</dc:format><dc:type
           rdf:resource="http://purl.org/dc/dcmitype/StillImage" /><dc:title /></cc:Work></rdf:RDF></metadata><defs
     id="defs2067" /><sodipodi:namedview
     pagecolor="#ffffff"
     bordercolor="#666666"
     borderopacity="1"
     objecttolerance="10"
     gridtolerance="10"
     guidetolerance="10"
     inkscape:pageopacity="0"
     inkscape:pageshadow="2"
     inkscape:window-width="1916"
     inkscape:window-height="1056"
     id="namedview2065"
     showgrid="false"
     showguides="false"
     inkscape:zoom="21.575"
     inkscape:cx="10.776362"
     inkscape:cy="19.8146"
     inkscape:window-x="1920"
     inkscape:window-y="20"
     inkscape:window-maximized="1"
     inkscape:current-layer="Layer_1" /><style
     type="text/css"
     id="style2058">
	.st0{fill:#FFFFFF;}
</style><path
     class="st0"
     d="M31.7,4.2c-2.5,0-4.7,1.1-6.2,2.9H11.3c-2.7,0-4.9,2.2-4.9,4.9v16.3c0,2.7,2.2,4.9,4.9,4.9H28  c2.7,0,4.9-2.2,4.9-4.9v-7.6c4-0.6,7.1-4,7.1-8.2C40,7.9,36.3,4.2,31.7,4.2z M30.7,28.2c0,1.5-1.2,2.7-2.7,2.7H11.3  c-1.5,0-2.7-1.2-2.7-2.7V16.4c0-1.5,1.2-2.7,2.7-2.7h12.3c0.5,3.6,3.4,6.5,7.1,7V28.2z M35.6,14.4c0.1,0.1,0.2,0.3,0.2,0.5  s-0.1,0.4-0.2,0.5l-1,1c-0.1,0.1-0.3,0.2-0.5,0.2s-0.4-0.1-0.5-0.2l-2-2l-2,2c-0.1,0.1-0.3,0.2-0.5,0.2s-0.4-0.1-0.5-0.2l-1-1  c-0.1-0.1-0.2-0.3-0.2-0.5s0.1-0.4,0.2-0.5l2-2l-2-2c-0.1-0.1-0.2-0.3-0.2-0.5s0.1-0.4,0.2-0.5l1-1c0.1-0.1,0.3-0.2,0.5-0.2  s0.4,0.1,0.5,0.2l2,2l2-2c0.1-0.1,0.3-0.2,0.5-0.2s0.4,0.1,0.5,0.2l1,1c0.1,0.1,0.2,0.3,0.2,0.5s-0.1,0.4-0.2,0.5l-2,2L35.6,14.4z"
     id="path2060"
     style="fill:#909090;fill-opacity:1" /><path
     class="st0"
     d="M15.4,29.1c-0.3,0.1-0.5,0-0.5-0.3V16.2c0-0.3,0.2-0.4,0.5-0.3l11.4,6.3c0.3,0.1,0.3,0.4,0,0.5L15.4,29.1z"
     id="path2062"
     style="fill:#909090;fill-opacity:1" /></svg>