<?xml version="1.0" encoding="UTF-8" standalone="no"?>
<!-- Generator: Adobe Illustrator 21.1.0, SVG Export Plug-In . SVG Version: 6.00 Build 0)  -->

<svg
   xmlns:dc="http://purl.org/dc/elements/1.1/"
   xmlns:cc="http://creativecommons.org/ns#"
   xmlns:rdf="http://www.w3.org/1999/02/22-rdf-syntax-ns#"
   xmlns:svg="http://www.w3.org/2000/svg"
   xmlns="http://www.w3.org/2000/svg"
   xmlns:sodipodi="http://sodipodi.sourceforge.net/DTD/sodipodi-0.dtd"
   xmlns:inkscape="http://www.inkscape.org/namespaces/inkscape"
   version="1.0"
   id="Layer_1"
   x="0px"
   y="0px"
   viewBox="0 0 40 40"
   style="enable-background:new 0 0 40 40;"
   xml:space="preserve"
   sodipodi:docname="CANbus_icon_SaveAsProject_disabled.svg"
   inkscape:version="0.92.2 5c3e80d, 2017-08-06"><metadata
     id="metadata2259"><rdf:RDF><cc:Work
         rdf:about=""><dc:format>image/svg+xml</dc:format><dc:type
           rdf:resource="http://purl.org/dc/dcmitype/StillImage" /><dc:title /></cc:Work></rdf:RDF></metadata><defs
     id="defs2257" /><sodipodi:namedview
     pagecolor="#ffffff"
     bordercolor="#666666"
     borderopacity="1"
     objecttolerance="10"
     gridtolerance="10"
     guidetolerance="10"
     inkscape:pageopacity="0"
     inkscape:pageshadow="2"
     inkscape:window-width="1916"
     inkscape:window-height="1056"
     id="namedview2255"
     showgrid="false"
     inkscape:zoom="11.8"
     inkscape:cx="-12.612224"
     inkscape:cy="16.002586"
     inkscape:window-x="0"
     inkscape:window-y="20"
     inkscape:window-maximized="0"
     inkscape:current-layer="Layer_1" /><style
     type="text/css"
     id="style2246">
	.st0{fill:#FFFFFF;}
</style><path
     class="st0"
     d="M31,20.9V31h-2.2v-7.1c0-0.2-0.1-0.5-0.2-0.7l-2,2V31H13.5v-6.6h2.3v-2.2h-2.9c-0.9,0-1.6,0.7-1.6,1.6V31H9.1  V9.2h2.2v7.1c0,0.9,0.7,1.6,1.6,1.6h5.8l2.2-2.2h-2.5c-0.3,0-0.5-0.3-0.5-0.5V9.7c0-0.3,0.3-0.5,0.5-0.5h3.3c0.3,0,0.5,0.3,0.5,0.5  v4.7l2.2-2.2v-3c0.3,0,1,0.3,1.2,0.5l0.6,0.6L27.6,9l0,0l0.3-0.3l-0.6-0.6c-0.7-0.6-2-1.1-2.9-1.1H8.6C7.7,7,6.9,7.7,6.9,8.6v23  c0,0.9,0.7,1.6,1.6,1.6h23c0.9,0,1.6-0.7,1.6-1.6V18.7L31,20.9z"
     id="path2248"
     style="fill:#909090;fill-opacity:1" /><g
     id="g2252"
     style="fill:#909090;fill-opacity:1"><path
       class="st0"
       d="M34.1,15L22.7,26.5h-4.9v-4.9l11.5-11.5L34.1,15z M23.9,22.9l-2.6-2.6l-2,2v1H21v1.6h1L23.9,22.9z M28.9,12.6   l-6,6c-0.2,0.2-0.2,0.4,0,0.6s0.4,0.1,0.6,0l6-6c0.2-0.2,0.2-0.4,0-0.6S29.1,12.5,28.9,12.6z M35.2,14l-4.9-5l1.6-1.6   c0.6-0.6,1.7-0.6,2.3,0l2.6,2.6c0.6,0.6,0.6,1.7,0,2.3L35.2,14z"
       id="path2250"
       style="fill:#909090;fill-opacity:1" /></g></svg>