<?xml version="1.0" encoding="utf-8"?>
<!-- Generator: Adobe Illustrator 21.1.0, SVG Export Plug-In . SVG Version: 6.00 Build 0)  -->
<svg version="1.0" id="Layer_1" xmlns="http://www.w3.org/2000/svg" xmlns:xlink="http://www.w3.org/1999/xlink" x="0px" y="0px"
	 viewBox="0 0 40 40" style="enable-background:new 0 0 40 40;" xml:space="preserve">
<path d="M34.4,22.8l-5,8.4c-1,1.2-2.8,2.1-4.4,2.1l-14.8-0.1c-2.1,0-3.8-1.7-3.8-3.8V10.7c0-2.1,1.7-3.8,3.8-3.8L13.7,7
	c2.1,0,3.8,1.7,3.8,3.8v0.5H25c2.1,0,3.8,1.7,3.8,3.8V18h3.3c1.2,0,2.3,0.5,2.8,1.6c0.2,0.4,0.3,0.8,0.3,1.2
	C35.2,21.5,34.8,22.2,34.4,22.8z M26.6,18v-2.7c0-0.9-0.7-1.6-1.6-1.6h-8c-0.9,0-1.6-0.7-1.6-1.6v-1.1c0-0.9-0.7-1.6-1.6-1.6
	l-3.6-0.1c-0.9,0-1.6,0.7-1.6,1.6v16.8l4.4-7.6c1-1.2,2.8-2.1,4.4-2.1L26.6,18z M32.1,20.2L17.3,20c-0.9,0-2.1,0.6-2.7,1.3l-5,8.4
	c-0.2,0.2-0.3,0.4-0.3,0.7c0,0.5,0.5,0.6,0.9,0.6L25,31.1c0.9,0,2.1-0.6,2.7-1.3l5-8.4c0.2-0.2,0.3-0.4,0.3-0.7
	C33,20.3,32.4,20.2,32.1,20.2z"/>
</svg>
