<?xml version="1.0" encoding="UTF-8" standalone="no"?>
<!-- Generator: Adobe Illustrator 21.1.0, SVG Export Plug-In . SVG Version: 6.00 Build 0)  -->

<svg
   xmlns:dc="http://purl.org/dc/elements/1.1/"
   xmlns:cc="http://creativecommons.org/ns#"
   xmlns:rdf="http://www.w3.org/1999/02/22-rdf-syntax-ns#"
   xmlns:svg="http://www.w3.org/2000/svg"
   xmlns="http://www.w3.org/2000/svg"
   xmlns:sodipodi="http://sodipodi.sourceforge.net/DTD/sodipodi-0.dtd"
   xmlns:inkscape="http://www.inkscape.org/namespaces/inkscape"
   version="1.0"
   id="Layer_1"
   x="0px"
   y="0px"
   viewBox="0 0 40 40"
   style="enable-background:new 0 0 40 40;"
   xml:space="preserve"
   sodipodi:docname="CANbus_icon_TabsView_disabled.svg"
   inkscape:version="0.92.2 5c3e80d, 2017-08-06"><metadata
     id="metadata17"><rdf:RDF><cc:Work
         rdf:about=""><dc:format>image/svg+xml</dc:format><dc:type
           rdf:resource="http://purl.org/dc/dcmitype/StillImage" /><dc:title /></cc:Work></rdf:RDF></metadata><defs
     id="defs15" /><sodipodi:namedview
     pagecolor="#ffffff"
     bordercolor="#666666"
     borderopacity="1"
     objecttolerance="10"
     gridtolerance="10"
     guidetolerance="10"
     inkscape:pageopacity="0"
     inkscape:pageshadow="2"
     inkscape:window-width="1916"
     inkscape:window-height="1056"
     id="namedview13"
     showgrid="false"
     inkscape:zoom="5.9"
     inkscape:cx="-48.474577"
     inkscape:cy="20"
     inkscape:window-x="0"
     inkscape:window-y="20"
     inkscape:window-maximized="0"
     inkscape:current-layer="Layer_1" /><style
     type="text/css"
     id="style2">
	.st0{fill:#FFFFFF;}
</style><g
     id="g10"
     style="fill:#909090;fill-opacity:1"><path
       class="st0"
       d="M34.8,11.2H13.5V9.6c0-1.5-1.2-2.7-2.7-2.7H5.2c-1.5,0-2.7,1.2-2.7,2.7V14v1.2v15.2c0,1.5,1.2,2.7,2.7,2.7   h29.5c1.5,0,2.7-1.2,2.7-2.7V14C37.5,12.5,36.3,11.2,34.8,11.2z M35.3,30.2L35.3,30.2v0.2c0,0.3-0.3,0.5-0.5,0.5H5.2   c-0.3,0-0.5-0.3-0.5-0.5V14.1l0,0V14c0-0.3,0.3-0.5,0.5-0.5h29.5c0.3,0,0.5,0.3,0.5,0.5L35.3,30.2L35.3,30.2z"
       id="path4"
       style="fill:#909090;fill-opacity:1" /><path
       class="st0"
       d="M31.5,6.9h-2.6c-1.4,0-2.6,1.1-2.7,2.6h8C34.1,8,32.9,6.9,31.5,6.9z"
       id="path6"
       style="fill:#909090;fill-opacity:1" /><path
       class="st0"
       d="M21.1,6.9h-2.6c-1.4,0-2.6,1.1-2.7,2.6h8C23.7,8,22.5,6.9,21.1,6.9z"
       id="path8"
       style="fill:#909090;fill-opacity:1" /></g></svg>