<?xml version="1.0" encoding="utf-8"?>
<!-- Generator: Adobe Illustrator 21.1.0, SVG Export Plug-In . SVG Version: 6.00 Build 0)  -->
<svg version="1.0" id="Layer_1" xmlns="http://www.w3.org/2000/svg" xmlns:xlink="http://www.w3.org/1999/xlink" x="0px" y="0px"
	 viewBox="0 0 40 40" style="enable-background:new 0 0 40 40;" xml:space="preserve">
<path d="M32,14c0,0.3-0.2,0.5-0.5,0.5h-1.6v14c0,1.9-1.2,3.5-2.7,3.5H12.9c-1.5,0-2.7-1.5-2.7-3.4V14.5H8.5C8.2,14.5,8,14.3,8,14
	v-1.1c0-0.3,0.2-0.5,0.5-0.5h5.3L15,9.5C15.3,8.7,16.4,8,17.3,8h5.5c0.9,0,1.9,0.7,2.3,1.5l1.2,2.9h5.3c0.3,0,0.5,0.2,0.5,0.5V14z
	 M27.7,14.5H12.3v14c0,0.8,0.5,1.3,0.5,1.3h14.2c0.1,0,0.5-0.5,0.5-1.3V14.5z M16.7,26c0,0.3-0.2,0.5-0.5,0.5h-1.1
	c-0.3,0-0.5-0.2-0.5-0.5v-7.7c0-0.3,0.2-0.5,0.5-0.5h1.1c0.3,0,0.5,0.2,0.5,0.5V26z M23.8,12.3l-0.8-2c0-0.1-0.2-0.2-0.3-0.2h-5.4
	c-0.1,0-0.2,0.1-0.3,0.2l-0.8,2H23.8z M21.1,26c0,0.3-0.2,0.5-0.5,0.5h-1.1c-0.3,0-0.5-0.2-0.5-0.5v-7.7c0-0.3,0.2-0.5,0.5-0.5h1.1
	c0.3,0,0.5,0.2,0.5,0.5V26z M25.5,26c0,0.3-0.2,0.5-0.5,0.5h-1.1c-0.3,0-0.5-0.2-0.5-0.5v-7.7c0-0.3,0.2-0.5,0.5-0.5h1.1
	c0.3,0,0.5,0.2,0.5,0.5V26z"/>
</svg>
