<?xml version="1.0" encoding="utf-8"?>
<!-- Generator: Adobe Illustrator 21.1.0, SVG Export Plug-In . SVG Version: 6.00 Build 0)  -->
<svg version="1.0" id="Layer_1" xmlns="http://www.w3.org/2000/svg" xmlns:xlink="http://www.w3.org/1999/xlink" x="0px" y="0px"
	 viewBox="0 0 40 40" style="enable-background:new 0 0 40 40;" xml:space="preserve">
<path d="M33.1,31.5c0,0.9-0.7,1.6-1.6,1.6h-23c-0.9,0-1.6-0.7-1.6-1.6v-23c0-0.9,0.7-1.6,1.6-1.6h15.9c0.9,0,2.2,0.5,2.8,1.2
	l4.8,4.8c0.6,0.6,1.2,1.9,1.2,2.8V31.5z M30.9,31V15.7c0-0.3-0.3-1-0.5-1.2l-4.8-4.8c-0.2-0.2-0.9-0.5-1.2-0.5v7.1
	c0,0.9-0.7,1.6-1.6,1.6h-9.8c-0.9,0-1.6-0.7-1.6-1.6V9.1H9.1V31h2.2v-7.1c0-0.9,0.7-1.6,1.6-1.6h14.2c0.9,0,1.6,0.7,1.6,1.6V31H30.9
	z M26.6,31v-6.6H13.4V31H26.6z M22.2,9.7c0-0.3-0.3-0.5-0.5-0.5h-3.3c-0.3,0-0.5,0.3-0.5,0.5v5.5c0,0.3,0.3,0.5,0.5,0.5h3.3
	c0.3,0,0.5-0.3,0.5-0.5V9.7z"/>
</svg>
