<?xml version="1.0" encoding="utf-8"?>
<!-- Generator: Adobe Illustrator 21.1.0, SVG Export Plug-In . SVG Version: 6.00 Build 0)  -->
<svg version="1.0" id="Layer_1" xmlns="http://www.w3.org/2000/svg" xmlns:xlink="http://www.w3.org/1999/xlink" x="0px" y="0px"
	 viewBox="0 0 40 40" style="enable-background:new 0 0 40 40;" xml:space="preserve">
<path d="M31.2,16.2v15.3c0,0.9-0.7,1.6-1.6,1.6H10.4c-0.9,0-1.6-0.7-1.6-1.6v-23c0-0.9,0.7-1.6,1.6-1.6h11.5c0.9,0,2.2,0.5,2.8,1.2
	l5.3,5.3C30.7,14,31.2,15.3,31.2,16.2z M29,17.9h-7.1c-0.9,0-1.6-0.7-1.6-1.6V9.1H11V31h18V17.9z M22.4,15.7h6.4
	c-0.1-0.3-0.3-0.6-0.4-0.7l-5.3-5.3c-0.1-0.1-0.4-0.3-0.7-0.4V15.7z"/>
</svg>
