<?xml version="1.0" encoding="UTF-8" standalone="no"?>
<!-- Generator: Adobe Illustrator 21.1.0, SVG Export Plug-In . SVG Version: 6.00 Build 0)  -->

<svg
   xmlns:dc="http://purl.org/dc/elements/1.1/"
   xmlns:cc="http://creativecommons.org/ns#"
   xmlns:rdf="http://www.w3.org/1999/02/22-rdf-syntax-ns#"
   xmlns:svg="http://www.w3.org/2000/svg"
   xmlns="http://www.w3.org/2000/svg"
   xmlns:sodipodi="http://sodipodi.sourceforge.net/DTD/sodipodi-0.dtd"
   xmlns:inkscape="http://www.inkscape.org/namespaces/inkscape"
   version="1.0"
   id="Layer_1"
   x="0px"
   y="0px"
   viewBox="0 0 40 40"
   style="enable-background:new 0 0 40 40;"
   xml:space="preserve"
   sodipodi:docname="CANbus_icon_OpenSim_disabled.svg"
   inkscape:version="0.92.2 5c3e80d, 2017-08-06"><metadata
     id="metadata2180"><rdf:RDF><cc:Work
         rdf:about=""><dc:format>image/svg+xml</dc:format><dc:type
           rdf:resource="http://purl.org/dc/dcmitype/StillImage" /><dc:title /></cc:Work></rdf:RDF></metadata><defs
     id="defs2178" /><sodipodi:namedview
     pagecolor="#ffffff"
     bordercolor="#666666"
     borderopacity="1"
     objecttolerance="10"
     gridtolerance="10"
     guidetolerance="10"
     inkscape:pageopacity="0"
     inkscape:pageshadow="2"
     inkscape:window-width="1916"
     inkscape:window-height="1056"
     id="namedview2176"
     showgrid="false"
     inkscape:zoom="22.175"
     inkscape:cx="11.02593"
     inkscape:cy="19.819617"
     inkscape:window-x="1920"
     inkscape:window-y="20"
     inkscape:window-maximized="1"
     inkscape:current-layer="Layer_1" /><style
     type="text/css"
     id="style2167">
	.st0{fill:#FFFFFF;}
</style><path
     class="st0"
     d="M15.8,29.1c-0.3,0.1-0.5,0-0.5-0.3V16.2c0-0.3,0.2-0.4,0.5-0.3l11.4,6.3c0.3,0.1,0.3,0.4,0,0.5L15.8,29.1z"
     id="path2169"
     style="fill:#909090;fill-opacity:1" /><g
     id="g2173"><path
       class="st0"
       d="M33.3,28.2c0,2.7-2.2,4.9-4.9,4.9H11.7c-2.7,0-4.9-2.2-4.9-4.9V12c0-2.7,2.2-4.9,4.9-4.9h16.7   c2.7,0,4.9,2.2,4.9,4.9C33.3,12,33.3,28.2,33.3,28.2z M11.7,13.7c-1.5,0-2.7,1.2-2.7,2.7v11.8c0,1.5,1.2,2.7,2.7,2.7h16.7   c1.5,0,2.7-1.2,2.7-2.7V16.4c0-1.5-1.2-2.7-2.7-2.7H11.7z"
       id="path2171"
       style="fill:#909090;fill-opacity:1" /></g></svg>